<?xml version="1.0" encoding="UTF-8" standalone="no"?>
<svg width="500px" height="500px" viewBox="0 0 500 500" version="1.1" xmlns="http://www.w3.org/2000/svg" xmlns:xlink="http://www.w3.org/1999/xlink">
    <!-- Generator: Sketch 42 (36781) - http://www.bohemiancoding.com/sketch -->
    <title>EAS</title>
    <desc>Created with Sketch.</desc>
    <defs></defs>
    <g id="Page-1" stroke="none" stroke-width="1" fill="none" fill-rule="evenodd">
        <g id="EAS">
            <g id="Page-1" transform="translate(7.000000, 0.000000)">
                <path d="M243.108426,494.955263 C369.20852,494.955263 471.445615,392.757895 471.445615,266.698684 C471.445615,140.639474 369.20852,38.4355263 243.108426,38.4355263 C117.008331,38.4355263 14.7778176,140.639474 14.7778176,266.698684 C14.7778176,392.757895 117.008331,494.955263 243.108426,494.955263" id="Fill-1" fill="#C4CDD3"></path>
                <path d="M243.108426,494.955263 C369.20852,494.955263 471.445615,392.757895 471.445615,266.698684 C471.445615,140.639474 369.20852,38.4355263 243.108426,38.4355263 C117.008331,38.4355263 14.7778176,140.639474 14.7778176,266.698684 C14.7778176,392.757895 117.008331,494.955263 243.108426,494.955263 Z" id="Stroke-3" stroke="#0067AB" stroke-width="7.73684211"></path>
                <path d="M243.088682,490.227632 C366.668223,490.227632 466.85202,390.069737 466.85202,266.536842 C466.85202,142.997368 366.668223,42.8460526 243.088682,42.8460526 C119.502561,42.8460526 19.3187635,142.997368 19.3187635,266.536842 C19.3187635,390.069737 119.502561,490.227632 243.088682,490.227632 Z" id="Stroke-5" stroke="#051821" stroke-width="4.98026316"></path>
                <path d="M243.088682,490.227632 C366.668223,490.227632 466.85202,390.069737 466.85202,266.536842 C466.85202,142.997368 366.668223,42.8460526 243.088682,42.8460526 C119.502561,42.8460526 19.3187635,142.997368 19.3187635,266.536842 C19.3187635,390.069737 119.502561,490.227632 243.088682,490.227632 Z" id="Stroke-7" stroke="#051821" stroke-width="3.82894737"></path>
                <path d="M334.240604,68.1407895 C329.153428,59.1342105 284.90882,39.5355263 243.14528,39.5355263 C201.38832,39.5355263 157.137131,59.1342105 152.049955,68.1407895 L152.049955,122.042105 L334.299834,122.042105 L334.240604,68.1407895 Z" id="Fill-9" fill="#051821"></path>
                <path d="M334.240604,68.1407895 C329.153428,59.1342105 284.90882,39.5355263 243.14528,39.5355263 C201.38832,39.5355263 157.137131,59.1342105 152.049955,68.1407895 L152.049955,122.042105 L334.299834,122.042105 L334.240604,68.1407895 Z" id="Stroke-11" stroke="#0067AB" stroke-width="6.32894737"></path>
                <path d="M334.240604,68.1407895 C329.153428,59.1342105 284.90882,39.5355263 243.14528,39.5355263 C201.38832,39.5355263 157.137131,59.1342105 152.049955,68.1407895 L152.049955,122.042105 L334.299834,122.042105 L334.240604,68.1407895 Z" id="Stroke-13" stroke="#0067AB" stroke-width="5.17763158"></path>
                <path d="M309.774119,17.6868421 C286.457349,6.66710526 265.174132,3.41710526 242.304876,3.18026316 C213.854862,2.88421053 187.366011,9.50263158 174.829051,16.7394737 L174.829051,115.917105 L309.813605,115.917105 L309.774119,17.6868421 Z" id="Fill-15" fill="#051821"></path>
                <path d="M309.774119,17.6868421 C286.457349,6.66710526 265.174132,3.41710526 242.304876,3.18026316 C213.854862,2.88421053 187.366011,9.50263158 174.829051,16.7394737 L174.829051,115.917105 L309.813605,115.917105 L309.774119,17.6868421 Z" id="Stroke-17" stroke="#0067AB" stroke-width="6.34210526"></path>
                <path d="M309.774119,17.6868421 C286.457349,6.66710526 265.174132,3.41710526 242.304876,3.18026316 C213.854862,2.88421053 187.366011,9.50263158 174.829051,16.7394737 L174.829051,115.917105 L309.813605,115.917105 L309.774119,17.6868421 Z" id="Stroke-19" stroke="#0067AB" stroke-width="5.19078947"></path>
                <path d="M219.483003,18.8309211 L219.483003,20.0348684 C218.351057,20.5348684 218.219435,21.2717105 218.219435,22.1730263 L218.219435,68.7717105 C218.219435,69.6730263 218.351057,70.3375 219.483003,70.2453947 L219.483003,71.4427632 L210.861786,72.5809211 L210.861786,71.3835526 C211.684422,71.1664474 211.914759,70.7059211 211.914759,70.0019737 C211.914759,68.6993421 210.776232,67.6993421 198.798665,41.3177632 L198.798665,72.1138158 C198.798665,73.0151316 198.930286,73.6796053 200.068814,73.5809211 L200.068814,74.7848684 L191.447597,77.0743421 L191.447597,75.8703947 C192.579543,75.3703947 192.724327,74.6335526 192.724327,73.7322368 L192.724327,27.4164474 C192.724327,26.5151316 192.579543,25.8506579 191.447597,25.9493421 L191.447597,24.7519737 C192.599286,24.3177632 201.345543,22.0480263 202.378773,21.8440789 L202.378773,23.0480263 C201.338962,23.4230263 201.108624,24.0875 201.108624,24.6861842 C201.108624,25.7848684 208.959854,42.4296053 212.138516,49.2980263 L212.138516,23.0217105 C212.138516,21.8177632 211.769976,21.4164474 211.184259,21.4690789 L211.184259,20.2717105 C212.0398,20.0085526 218.403705,18.8967105 219.483003,18.8309211" id="Fill-21" fill="#FEFEFE"></path>
                <path d="M219.483003,18.8309211 L219.483003,20.0348684 C218.351057,20.5348684 218.219435,21.2717105 218.219435,22.1730263 L218.219435,68.7717105 C218.219435,69.6730263 218.351057,70.3375 219.483003,70.2453947 L219.483003,71.4427632 L210.861786,72.5809211 L210.861786,71.3835526 C211.684422,71.1664474 211.914759,70.7059211 211.914759,70.0019737 C211.914759,68.6993421 210.776232,67.6993421 198.798665,41.3177632 L198.798665,72.1138158 C198.798665,73.0151316 198.930286,73.6796053 200.068814,73.5809211 L200.068814,74.7848684 L191.447597,77.0743421 L191.447597,75.8703947 C192.579543,75.3703947 192.724327,74.6335526 192.724327,73.7322368 L192.724327,27.4164474 C192.724327,26.5151316 192.579543,25.8506579 191.447597,25.9493421 L191.447597,24.7519737 C192.599286,24.3177632 201.345543,22.0480263 202.378773,21.8440789 L202.378773,23.0480263 C201.338962,23.4230263 201.108624,24.0875 201.108624,24.6861842 C201.108624,25.7848684 208.959854,42.4296053 212.138516,49.2980263 L212.138516,23.0217105 C212.138516,21.8177632 211.769976,21.4164474 211.184259,21.4690789 L211.184259,20.2717105 C212.0398,20.0085526 218.403705,18.8967105 219.483003,18.8309211 Z" id="Stroke-23" stroke="#FEFEFE" stroke-width="1.34868421"></path>
                <path d="M239.174914,63.2388158 L246.887941,63.2388158 C250.066603,63.2388158 251.33017,56.4427632 251.33017,53.4493421 C251.33017,50.4625 250.066603,46.5151316 246.887941,46.5151316 L239.174914,46.5151316 L239.174914,63.2388158 Z M239.174914,39.5743421 L245.341386,39.5743421 C249.243968,39.5743421 250.244292,33.4690789 250.244292,30.7453947 C250.244292,28.0217105 249.243968,24.7585526 245.341386,24.7585526 L239.174914,24.7585526 L239.174914,39.5743421 Z M232.370076,19.6006579 C232.370076,18.9822368 232.225292,18.5085526 231.099927,18.3769737 L231.099927,17.5611842 L248.375265,17.5611842 C253.284751,17.5611842 256.871441,23.1335526 256.871441,29.8638158 C256.871441,33.9427632 255.055062,42.1664474 252.508184,42.9822368 L252.508184,43.1138158 C255.555224,44.3440789 257.773049,49.6467105 257.773049,54.6664474 C257.773049,60.1072368 255.055062,70.4427632 248.612184,70.4427632 L231.099927,70.4427632 L231.099927,69.6269737 C232.225292,69.4888158 232.370076,69.0217105 232.370076,68.3967105 L232.370076,19.6006579 Z" id="Fill-25" fill="#FEFEFE"></path>
                <path d="M239.174914,63.2388158 L246.887941,63.2388158 C250.066603,63.2388158 251.33017,56.4427632 251.33017,53.4493421 C251.33017,50.4625 250.066603,46.5151316 246.887941,46.5151316 L239.174914,46.5151316 L239.174914,63.2388158 Z M239.174914,39.5743421 L245.341386,39.5743421 C249.243968,39.5743421 250.244292,33.4690789 250.244292,30.7453947 C250.244292,28.0217105 249.243968,24.7585526 245.341386,24.7585526 L239.174914,24.7585526 L239.174914,39.5743421 Z M232.370076,19.6006579 C232.370076,18.9822368 232.225292,18.5085526 231.099927,18.3769737 L231.099927,17.5611842 L248.375265,17.5611842 C253.284751,17.5611842 256.871441,23.1335526 256.871441,29.8638158 C256.871441,33.9427632 255.055062,42.1664474 252.508184,42.9822368 L252.508184,43.1138158 C255.555224,44.3440789 257.773049,49.6467105 257.773049,54.6664474 C257.773049,60.1072368 255.055062,70.4427632 248.612184,70.4427632 L231.099927,70.4427632 L231.099927,69.6269737 C232.225292,69.4888158 232.370076,69.0217105 232.370076,68.3967105 L232.370076,19.6006579 Z" id="Stroke-27" stroke="#FEFEFE" stroke-width="1.34868421"></path>
                <path d="M276.065164,53.3960526 L284.502109,55.5539474 L280.105947,31.4815789 L276.065164,53.3960526 Z M274.933218,61.8434211 C273.755204,69.1657895 273.478799,70.0671053 273.478799,70.7052632 C273.478799,71.3302632 273.663069,71.7973684 274.294853,71.9486842 L274.150069,73.0605263 L266.075082,71.7315789 L266.075082,70.475 C266.706866,70.3171053 266.983272,69.975 267.253096,68.3697368 C267.667704,66.0802632 275.518934,23.4157895 275.518934,22.7842105 C275.518934,22.0539474 275.018772,21.7184211 274.610745,21.5078947 L274.610745,20.2578947 L286.456691,23.2842105 L286.456691,24.5407895 C285.956528,24.5144737 285.634055,24.6460526 285.634055,25.6921053 C285.634055,26.5276316 291.214812,56.7973684 294.024934,73.3960526 C294.479028,76.0144737 294.755434,76.7118421 295.295082,76.85 L295.295082,78.1065789 L286.364555,75.8236842 L286.364555,74.5671053 C286.996339,74.6263158 287.226677,74.1526316 287.226677,73.5342105 C287.226677,73.1131579 285.864393,65.6131579 285.680123,64.2184211 L274.933218,61.8434211 Z" id="Fill-29" fill="#FEFEFE"></path>
                <path d="M276.065164,53.3960526 L284.502109,55.5539474 L280.105947,31.4815789 L276.065164,53.3960526 Z M274.933218,61.8434211 C273.755204,69.1657895 273.478799,70.0671053 273.478799,70.7052632 C273.478799,71.3302632 273.663069,71.7973684 274.294853,71.9486842 L274.150069,73.0605263 L266.075082,71.7315789 L266.075082,70.475 C266.706866,70.3171053 266.983272,69.975 267.253096,68.3697368 C267.667704,66.0802632 275.518934,23.4157895 275.518934,22.7842105 C275.518934,22.0539474 275.018772,21.7184211 274.610745,21.5078947 L274.610745,20.2578947 L286.456691,23.2842105 L286.456691,24.5407895 C285.956528,24.5144737 285.634055,24.6460526 285.634055,25.6921053 C285.634055,26.5276316 291.214812,56.7973684 294.024934,73.3960526 C294.479028,76.0144737 294.755434,76.7118421 295.295082,76.85 L295.295082,78.1065789 L286.364555,75.8236842 L286.364555,74.5671053 C286.996339,74.6263158 287.226677,74.1526316 287.226677,73.5342105 C287.226677,73.1131579 285.864393,65.6131579 285.680123,64.2184211 L274.933218,61.8434211 Z" id="Stroke-31" stroke="#FEFEFE" stroke-width="1.34868421"></path>
                <path d="M129.976351,392.05 C202.730203,455.918421 311.785297,446.734211 373.58823,371.55 C435.371419,296.365789 426.500122,183.628947 353.74627,119.767105 C280.999,55.8986842 171.930743,65.0828947 110.140973,140.267105 C48.3577838,215.451316 57.2290811,328.181579 129.976351,392.05" id="Fill-33" fill="#CC6C18"></path>
                <path d="M129.976351,392.05 C202.730203,455.918421 311.785297,446.734211 373.58823,371.55 C435.371419,296.365789 426.500122,183.628947 353.74627,119.767105 C280.999,55.8986842 171.930743,65.0828947 110.140973,140.267105 C48.3577838,215.451316 57.2290811,328.181579 129.976351,392.05 Z" id="Stroke-35" stroke="#051821" stroke-width="8.05263158"></path>
                <path d="M129.976351,392.05 C202.730203,455.918421 311.785297,446.734211 373.58823,371.55 C435.371419,296.365789 426.500122,183.628947 353.74627,119.767105 C280.999,55.8986842 171.930743,65.0828947 110.140973,140.267105 C48.3577838,215.451316 57.2290811,328.181579 129.976351,392.05 Z" id="Stroke-37" stroke="#051821" stroke-width="6.90131579"></path>
                <path d="M245.936316,76.2493421 C201.494276,178.315132 196.597951,346.953289 262.665424,432.209868" id="Stroke-39" stroke="#051821" stroke-width="8.05263158"></path>
                <path d="M309.549046,91.4052632 C322.763857,120.240789 340.736789,238.878947 296.288168,356.556579 C285.659722,384.707895 279.480086,394.977632 281.882181,401.582895 C286.107235,413.221053 301.704397,415.997368 325.119884,411.194737 L328.614438,410.451316" id="Stroke-41" stroke="#051821" stroke-width="8.05263158"></path>
                <path d="M245.936316,76.2493421 C201.494276,178.315132 196.597951,346.953289 262.665424,432.209868" id="Stroke-43" stroke="#051821" stroke-width="6.90131579"></path>
                <path d="M129.648614,392.024342 C177.374614,412.998026 311.911654,435.807237 397.195884,330.142763" id="Stroke-45" stroke="#051821" stroke-width="8.05263158"></path>
                <path d="M129.648614,392.024342 C177.374614,412.998026 311.911654,435.807237 397.195884,330.142763" id="Stroke-47" stroke="#051821" stroke-width="6.90131579"></path>
                <path d="M173.287104,90.8190789 C158.558645,109.858553 68.0753608,246.088816 174.682293,369.759868 C188.759226,386.101974 209.015793,398.154605 211.306009,409.996711 C213.418536,420.792763 208.002307,427.398026 202.599239,430.404605" id="Stroke-49" stroke="#051821" stroke-width="8.05263158"></path>
                <path d="M173.287104,90.8190789 C158.558645,109.858553 68.0753608,246.088816 174.682293,369.759868 C188.759226,386.101974 209.015793,398.154605 211.306009,409.996711 C213.418536,420.792763 208.002307,427.398026 202.599239,430.404605" id="Stroke-51" stroke="#051821" stroke-width="6.90131579"></path>
                <path d="M309.549046,91.4052632 C322.763857,120.240789 340.736789,238.878947 296.288168,356.556579 C285.659722,384.707895 279.480086,394.977632 281.882181,401.582895 C286.107235,413.221053 301.704397,415.997368 325.119884,411.194737 L328.614438,410.451316" id="Stroke-53" stroke="#051821" stroke-width="6.90131579"></path>
                <path d="M235.846203,145.071053 C82.2503514,145.071053 27.8182297,200.577632 1.77689189,214.807895 L1.77689189,389.478947 C10.8522027,396.426316 20.1644324,401.380263 26.6007297,403.906579 C44.4881081,388.834211 65.8108108,374.538158 92.6484595,364.215789 C125.567027,350.946053 183.362081,337.288158 237.478311,337.044737 C294.384919,336.794737 343.427135,344.347368 391.659878,365.117105 C418.497527,375.439474 440.195351,390.038158 458.076149,405.103947 C464.519027,402.584211 474.206378,396.202632 483.051351,390.459211 L483.051351,216.011842 C444.624419,189.169737 400.406135,145.071053 235.846203,145.071053" id="Fill-55" fill="#051821"></path>
                <path d="M235.846203,145.071053 C82.2503514,145.071053 27.8182297,200.577632 1.77689189,214.807895 L1.77689189,389.478947 C10.8522027,396.426316 20.1644324,401.380263 26.6007297,403.906579 C44.4881081,388.834211 65.8108108,374.538158 92.6484595,364.215789 C125.567027,350.946053 183.362081,337.288158 237.478311,337.044737 C294.384919,336.794737 343.427135,344.347368 391.659878,365.117105 C418.497527,375.439474 440.195351,390.038158 458.076149,405.103947 C464.519027,402.584211 474.206378,396.202632 483.051351,390.459211 L483.051351,216.011842 C444.624419,189.169737 400.406135,145.071053 235.846203,145.071053 Z" id="Stroke-57" stroke="#051821" stroke-width="3.55263158"></path>
                <path d="M235.846203,145.071053 C82.2503514,145.071053 27.8182297,200.577632 1.77689189,214.807895 L1.77689189,389.478947 C10.8522027,396.426316 20.1644324,401.380263 26.6007297,403.906579 C44.4881081,388.834211 65.8108108,374.538158 92.6484595,364.215789 C125.567027,350.946053 183.362081,337.288158 237.478311,337.044737 C294.384919,336.794737 343.427135,344.347368 391.659878,365.117105 C418.497527,375.439474 440.195351,390.038158 458.076149,405.103947 C464.519027,402.584211 474.206378,396.202632 483.051351,390.459211 L483.051351,216.011842 C444.624419,189.169737 400.406135,145.071053 235.846203,145.071053 Z" id="Stroke-59" stroke="#051821" stroke-width="2.40131579"></path>
                <path d="M242.49112,328.394079 C299.397728,328.315132 355.402728,340.025658 391.355174,355.361184 C418.192823,365.683553 440.871228,379.532237 458.745445,394.598026 C465.036958,393.078289 471.947093,387.900658 474.572945,386.032237 L474.572945,176.979605 C428.090769,136.150658 341.71408,106.545395 242.49112,106.545395 C126.170512,106.545395 54.0089581,141.703289 10.4027149,176.683553 L10.4027149,385.584868 C10.4027149,385.584868 17.8327554,391.578289 25.6115932,394.032237 C44.9007419,378.749342 67.1184716,364.348026 93.1729716,354.900658 C137.990134,338.301974 189.184364,328.769079 242.49112,328.394079" id="Fill-61" fill="#0067AB"></path>
                <path d="M242.49112,328.394079 C299.397728,328.315132 355.402728,340.025658 391.355174,355.361184 C418.192823,365.683553 440.871228,379.532237 458.745445,394.598026 C465.036958,393.078289 471.947093,387.900658 474.572945,386.032237 L474.572945,176.979605 C428.090769,136.150658 341.71408,106.545395 242.49112,106.545395 C126.170512,106.545395 54.0089581,141.703289 10.4027149,176.683553 L10.4027149,385.584868 C10.4027149,385.584868 17.8327554,391.578289 25.6115932,394.032237 C44.9007419,378.749342 67.1184716,364.348026 93.1729716,354.900658 C137.990134,338.301974 189.184364,328.769079 242.49112,328.394079 Z" id="Stroke-63" stroke="#051821" stroke-width="5.51315789"></path>
                <path d="M242.49112,328.394079 C299.397728,328.315132 355.402728,340.025658 391.355174,355.361184 C418.192823,365.683553 440.871228,379.532237 458.745445,394.598026 C465.036958,393.078289 471.947093,387.900658 474.572945,386.032237 L474.572945,176.979605 C428.090769,136.150658 341.71408,106.545395 242.49112,106.545395 C126.170512,106.545395 54.0089581,141.703289 10.4027149,176.683553 L10.4027149,385.584868 C10.4027149,385.584868 17.8327554,391.578289 25.6115932,394.032237 C44.9007419,378.749342 67.1184716,364.348026 93.1729716,354.900658 C137.990134,338.301974 189.184364,328.769079 242.49112,328.394079 Z" id="Stroke-65" stroke="#051821" stroke-width="4.36842105"></path>
                <path d="M472.777626,387.315789 C421.72818,340.164474 333.258707,313.644737 242.492436,313.644737 C152.634355,313.644737 60.0253824,341.065789 12.9706527,385.421053" id="Stroke-67" stroke="#051821" stroke-width="4.98026316"></path>
                <path d="M10.4053473,195.223026 C58.5262122,156.413816 127.660469,121.775658 241.888293,121.775658 C340.48605,121.775658 427.527428,151.459868 474.71378,195.940132" id="Stroke-69" stroke="#051821" stroke-width="4.98026316"></path>
                <path d="M472.777626,387.315789 C421.72818,340.164474 333.258707,313.644737 242.492436,313.644737 C152.634355,313.644737 60.0253824,341.065789 12.9706527,385.421053" id="Stroke-71" stroke="#051821" stroke-width="3.82894737"></path>
                <path d="M10.4053473,195.223026 C58.5262122,156.413816 127.660469,121.775658 241.888293,121.775658 C340.48605,121.775658 427.527428,151.459868 474.71378,195.940132" id="Stroke-73" stroke="#051821" stroke-width="3.82894737"></path>
                <path d="M36.0932811,348.593421 L36.0932811,334.001316 L42.5559027,330.086842 L42.5559027,205.501316 L36.0932811,209.678947 L36.0932811,194.744737 C49.6832135,185.389474 78.047673,171.205263 81.7199162,170.060526 L81.7199162,217.402632 L69.2882541,213.534211 L69.2882541,191.060526 L62.0688081,194.481579 L62.2794027,249.119737 L68.9197135,245.823684 L68.9197135,238.409211 L76.4353081,235.363158 L76.4353081,266.119737 L68.9197135,269.442105 L68.9197135,261.771053 L62.2135919,264.652632 L62.3912811,319.869737 L69.2882541,316.817105 L69.2882541,290.830263 L81.7199162,277.817105 L81.7199162,326.428947 C70.0253351,330.369737 51.6970243,339.047368 36.0932811,348.593421" id="Fill-75" fill="#FEFEFE"></path>
                <path d="M122.656215,242.058553 L118.569364,179.209868 L115.621039,244.551974 L122.656215,242.058553 Z M87.6317014,324.157237 L87.6251203,309.834868 L94.0679986,307.492763 L105.15712,175.880921 L99.0893635,178.1375 L99.0893635,163.144079 C111.376242,158.394079 131.935539,152.459868 139.898647,150.7625 L139.898647,165.2625 L134.791728,166.821711 L147.861755,292.591447 L153.337215,291.795395 L153.337215,306.446711 C148.914728,307.315132 135.239242,309.670395 123.399877,312.900658 L123.399877,298.617763 L128.908242,297.045395 L125.927012,258.749342 L114.383796,263.045395 L112.896472,301.663816 L119.253796,299.690132 L119.253796,314.098026 C111.751364,316.117763 96.3318905,320.676974 87.6317014,324.157237 L87.6317014,324.157237 Z" id="Fill-77" fill="#FEFEFE"></path>
                <path d="M182.001772,182.9 C182.001772,182.9 181.837245,168.077632 181.784596,164.057895 C181.718785,158.182895 181.784596,158.182895 177.842528,158.544737 C173.222609,158.965789 174.591474,159.728947 174.644123,164.038158 C174.696772,168.663158 174.769164,172.689474 174.769164,174.939474 C174.769164,215.156579 204.930258,213.268421 204.930258,252.314474 L205.167177,274.123684 C205.456745,299.242105 203.78515,299.005263 184.00242,301.959211 C166.279569,304.597368 159.606353,307.130263 158.67842,281.636842 L158.408596,258.103947 L177.164677,266.090789 C177.164677,266.090789 177.24365,275.840789 177.342366,279.873684 C177.467407,284.9 178.053123,284.781579 182.166299,284.136842 C185.562136,283.603947 184.522326,284.189474 184.463096,279.057895 C184.384123,272.301316 184.259082,261.143421 184.226177,258.353947 C183.824731,223.511842 153.795258,218.65 153.446461,187.965789 L153.235866,169.715789 C152.933136,143.222368 152.097339,146.413158 177.362109,142.643421 C191.478528,140.544737 200.047096,139.636842 200.441961,162.202632 L200.441961,190.617105 L182.001772,182.9 Z" id="Fill-79" fill="#FEFEFE"></path>
                <path d="M274.104659,299.136184 L274.104659,283.919079 L281.422822,284.419079 L281.422822,156.879605 L274.104659,156.004605 L274.104659,141.280921 C289.820281,142.149342 305.930768,144.234868 318.981051,146.524342 L318.981051,196.478289 L306.937673,185.004605 L306.937673,159.557237 L300.310524,158.695395 L300.310524,215.945395 L306.937673,216.958553 L306.937673,209.498026 L314.59147,210.590132 L314.59147,242.965132 L306.937673,241.419079 L306.937673,233.116447 L300.310524,232.103289 L300.310524,286.544079 L306.937673,287.392763 L306.937673,262.241447 L318.981051,256.616447 L318.981051,304.425658 C307.872186,302.873026 292.209214,299.715132 274.104659,299.136184" id="Fill-81" fill="#FEFEFE"></path>
                <path d="M351.464609,218.988158 L353.985164,219.521053 C357.315191,220.244737 360.743934,217.507895 360.724191,210.948684 L360.65838,182.961842 C360.625474,176.402632 357.183569,174.889474 353.853542,174.172368 L351.464609,173.639474 L351.464609,218.988158 Z M354.946001,153.975 C374.195664,158.922368 379.987015,168.501316 380.065988,189.527632 L380.112055,209.409211 C380.144961,219.632895 374.787961,230.448684 363.409272,226.573684 L363.409272,226.961842 C376.295028,230.711842 378.348326,238.132895 378.400974,253.757895 L378.499691,294.007895 C378.545758,307.317105 380.539826,313.771053 381.717839,319.461842 L362.566893,313.725 C361.14538,308.330263 360.849231,305.119737 360.816326,295.665789 L360.704447,251.988158 C360.678123,243.494737 358.901231,236.369737 351.668623,234.810526 L351.668623,297.040789 L356.077947,298.218421 L355.72915,312.093421 C352.50442,311.323684 334.801312,306.771053 325.870785,305.626316 L325.870785,291.698684 L333.116555,292.698684 L333.116555,163.876316 L325.870785,162.376316 L325.870785,147.442105 C325.870785,147.442105 349.45738,152.553947 354.946001,153.975 L354.946001,153.975 Z" id="Fill-83" fill="#FEFEFE"></path>
                <path d="M387.538805,321.4875 L387.538805,306.263816 L392.520684,307.994079 L392.540427,180.559868 L387.538805,178.480921 L387.538805,164.296711 C396.2719,167.7375 417.936819,177.119079 421.227359,179.309868 L431.243765,294.507237 L431.329319,199.948026 L428.1704,198.007237 L428.065103,183.138816 C433.290481,186.2375 438.719873,188.928289 452.007076,198.461184 L452.171603,213.415132 L446.886995,209.684868 L447.143657,348.717763 C446.024873,348.066447 427.604427,337.566447 423.497832,335.783553 L409.736792,202.757237 L409.736792,329.8625 C409.736792,329.8625 390.539778,322.191447 387.538805,321.4875" id="Fill-85" fill="#FEFEFE"></path>
                <path d="M266.257378,140.983553 L266.257378,190.411184 L252.983338,185.3125 L252.983338,155.292763 L246.375932,155.292763 L246.375932,282.740132 L253.345297,282.838816 L253.345297,298.161184 C249.205797,297.773026 227.271054,298.299342 220.966378,298.463816 L220.966378,282.838816 L227.916,282.838816 L227.916,155.292763 L221.440216,155.292763 L221.473122,185.305921 L208.25173,190.634868 L208.13327,141.154605 C212.424135,140.226974 261.723014,139.569079 266.257378,140.983553" id="Fill-87" fill="#FEFEFE"></path>
                <polygon id="Fill-89" fill="#051821" points="32.4559176 196.853947 29.1982824 198.768421 29.1982824 213.702632 32.4559176 211.781579"></polygon>
                <polygon id="Stroke-91" stroke="#0067AB" stroke-width="1.15131579" points="32.4559176 196.853947 29.1982824 198.768421 29.1982824 213.702632 32.4559176 211.781579"></polygon>
                <polygon id="Fill-93" fill="#051821" points="35.6497162 214.047368 38.9073514 212.264474 38.9073514 327.639474 35.6497162 329.514474"></polygon>
                <polygon id="Stroke-95" stroke="#0067AB" stroke-width="1.15131579" points="35.6497162 214.047368 38.9073514 212.264474 38.9073514 327.639474 35.6497162 329.514474"></polygon>
                <polygon id="Fill-97" fill="#051821" points="32.4559176 336.103289 32.488823 350.642763 29.2311878 352.623026 29.2311878 338.017763"></polygon>
                <polyline id="Stroke-99" stroke="#0067AB" stroke-width="1.15131579" points="32.4559176 336.103289 32.488823 350.642763 29.2311878 352.623026 29.2311878 338.017763 32.4559176 336.103289"></polyline>
                <polygon id="Fill-101" fill="#051821" points="74.821627 218.505921 65.6212757 215.617763 65.6212757 219.446711 74.821627 222.321711"></polygon>
                <polygon id="Stroke-103" stroke="#0067AB" stroke-width="1.15131579" points="74.821627 218.505921 65.6212757 215.617763 65.6212757 219.446711 74.821627 222.321711"></polygon>
                <polygon id="Fill-105" fill="#051821" points="65.9200568 288.856579 77.4830162 276.902632 77.4830162 271.527632 65.9200568 283.698684"></polygon>
                <polygon id="Stroke-107" stroke="#0067AB" stroke-width="1.15131579" points="65.9200568 288.856579 77.4830162 276.902632 77.4830162 271.527632 65.9200568 283.698684"></polygon>
                <polygon id="Fill-109" fill="#051821" points="95.4513419 164.486842 95.4118554 179.138158 92.1937068 180.427632 92.1937068 165.427632"></polygon>
                <polygon id="Stroke-111" stroke="#0067AB" stroke-width="1.15131579" points="95.4513419 164.486842 95.4118554 179.138158 92.1937068 180.427632 92.1937068 165.427632"></polygon>
                <polygon id="Fill-113" fill="#051821" points="90.4319514 305.188158 101.231505 181.523684 97.9738703 182.786842 87.1743162 306.181579"></polygon>
                <polygon id="Stroke-115" stroke="#0067AB" stroke-width="1.15131579" points="90.4319514 305.188158 101.231505 181.523684 97.9738703 182.786842 87.1743162 306.181579"></polygon>
                <polygon id="Fill-117" fill="#051821" points="122.675958 264.114474 124.913526 294.693421 121.655891 295.390789 119.359093 265.121053"></polygon>
                <polygon id="Stroke-119" stroke="#0067AB" stroke-width="1.15131579" points="122.675958 264.114474 124.913526 294.693421 121.655891 295.390789 119.359093 265.121053"></polygon>
                <path d="M154.777814,256.064474 L155.106868,284.880263 C155.212165,286.038158 155.955827,288.084211 156.054543,288.564474 L152.875881,289.064474 C152.875881,289.064474 152.237516,288.018421 152.020341,287.084211 C151.4083,284.597368 151.645219,254.722368 151.645219,254.722368 L154.777814,256.064474 Z" id="Fill-121" fill="#051821"></path>
                <path d="M154.777814,256.064474 L155.106868,284.880263 C155.212165,286.038158 155.955827,288.084211 156.054543,288.564474 L152.875881,289.064474 C152.875881,289.064474 152.237516,288.018421 152.020341,287.084211 C151.4083,284.597368 151.645219,254.722368 151.645219,254.722368 L154.777814,256.064474 Z" id="Stroke-123" stroke="#0067AB" stroke-width="1.15131579"></path>
                <path d="M176.879716,250.880263 C174.944878,238.426316 169.41677,232.946053 156.471784,214.946053 C154.405324,212.071053 148.054581,201.932895 147.8045,196.853947 C146.804176,192.261842 145.922311,165.932895 146.455378,162.676316 C146.823919,160.571053 145.718297,152.367105 152.378351,147.932895 C149.917027,150.610526 150.107878,154.913158 149.81173,162.196053 C149.502419,169.472368 150.042068,191.353947 150.864703,196.090789 C151.891351,202.018421 155.859743,208.498684 158.860716,213.610526 C162.184162,219.255263 179.617446,236.610526 180.255811,252.169737 C180.367689,253.597368 180.525635,258.182895 180.453243,260.867105 L177.373297,259.617105 C177.557568,258.860526 177.274581,252.952632 176.879716,250.880263" id="Fill-125" fill="#051821"></path>
                <path d="M176.879716,250.880263 C174.944878,238.426316 169.41677,232.946053 156.471784,214.946053 C154.405324,212.071053 148.054581,201.932895 147.8045,196.853947 C146.804176,192.261842 145.922311,165.932895 146.455378,162.676316 C146.823919,160.571053 145.718297,152.367105 152.378351,147.932895 C149.917027,150.610526 150.107878,154.913158 149.81173,162.196053 C149.502419,169.472368 150.042068,191.353947 150.864703,196.090789 C151.891351,202.018421 155.859743,208.498684 158.860716,213.610526 C162.184162,219.255263 179.617446,236.610526 180.255811,252.169737 C180.367689,253.597368 180.525635,258.182895 180.453243,260.867105 L177.373297,259.617105 C177.557568,258.860526 177.274581,252.952632 176.879716,250.880263 Z" id="Stroke-127" stroke="#0067AB" stroke-width="1.15131579"></path>
                <path d="M181.757614,190.860526 C179.730641,189.498684 179.941235,185.748684 179.941235,185.748684 L180.0926,185.807895 L194.939519,191.906579 L194.998749,196.025 L181.757614,190.860526 Z" id="Fill-129" fill="#051821"></path>
                <path d="M181.757614,190.860526 C179.730641,189.498684 179.941235,185.748684 179.941235,185.748684 L180.0926,185.807895 L194.939519,191.906579 L194.998749,196.025 L181.757614,190.860526 Z" id="Stroke-131" stroke="#0067AB" stroke-width="1.15131579"></path>
                <polygon id="Fill-133" fill="#051821" points="220.974276 193.121711 224.271397 191.838816 224.271397 279.088816 220.974276 279.088816"></polygon>
                <polygon id="Stroke-135" stroke="#0067AB" stroke-width="1.15131579" points="220.974276 193.121711 224.271397 191.838816 224.271397 279.088816 220.974276 279.088816"></polygon>
                <polygon id="Fill-137" fill="#051821" points="217.330331 283.034868 217.330331 298.758553 214.072696 298.758553 214.072696 282.995395"></polygon>
                <polygon id="Stroke-139" stroke="#0067AB" stroke-width="1.15131579" points="217.330331 283.034868 217.330331 298.758553 214.072696 298.758553 214.072696 282.995395"></polygon>
                <polygon id="Fill-141" fill="#051821" points="249.779009 192.253947 263.105699 197.05 263.105699 193.122368 249.779009 188.326316"></polygon>
                <polygon id="Stroke-143" stroke="#0067AB" stroke-width="1.15131579" points="249.779009 192.253947 263.105699 197.05 263.105699 193.122368 249.779009 188.326316"></polygon>
                <polygon id="Fill-145" fill="#051821" points="274.317228 159.680921 277.85785 160.088816 277.85785 280.523026 274.218512 280.384868"></polygon>
                <polygon id="Stroke-147" stroke="#0067AB" stroke-width="1.15131579" points="274.317228 159.680921 277.85785 160.088816 277.85785 280.523026 274.218512 280.384868"></polygon>
                <polygon id="Fill-149" fill="#051821" points="270.486381 283.594737 270.486381 298.917105 266.945759 298.719737 266.945759 283.502632"></polygon>
                <polygon id="Stroke-151" stroke="#0067AB" stroke-width="1.15131579" points="270.486381 283.594737 270.486381 298.917105 266.945759 298.719737 266.945759 283.502632"></polygon>
                <polygon id="Fill-153" fill="#051821" points="311.766212 194.361184 311.766212 199.051974 303.105509 191.394079 303.105509 186.229605"></polygon>
                <polygon id="Stroke-155" stroke="#0067AB" stroke-width="1.15131579" points="311.766212 194.361184 311.766212 199.051974 303.105509 191.394079 303.105509 186.229605"></polygon>
                <polygon id="Fill-157" fill="#051821" points="303.719524 256.115132 313.104146 251.713816 313.104146 255.542763 303.719524 259.944079"></polygon>
                <polygon id="Stroke-159" stroke="#0067AB" stroke-width="1.15131579" points="303.719524 256.115132 313.104146 251.713816 313.104146 255.542763 303.719524 259.944079"></polygon>
                <polygon id="Fill-161" fill="#051821" points="326.053081 167.255921 329.481824 167.992763 329.481824 288.769079 326.053081 288.190132"></polygon>
                <polygon id="Stroke-163" stroke="#0067AB" stroke-width="1.15131579" points="326.053081 167.255921 329.481824 167.992763 329.481824 288.769079 326.053081 288.190132"></polygon>
                <path d="M378.727396,160.985526 L378.707653,165.821053 C379.378923,166.426316 381.695464,173.617105 381.985031,176.215789 L381.985031,162.222368 L378.727396,160.985526 Z" id="Fill-165" fill="#051821"></path>
                <path d="M378.727396,160.985526 L378.707653,165.821053 C379.378923,166.426316 381.695464,173.617105 381.985031,176.215789 L381.985031,162.222368 L378.727396,160.985526 Z" id="Stroke-167" stroke="#0067AB" stroke-width="1.15131579"></path>
                <polygon id="Fill-169" fill="#051821" points="385.623053 182.115789 388.900431 183.365789 388.900431 302.977632 385.609891 301.878947"></polygon>
                <polygon id="Stroke-171" stroke="#0067AB" stroke-width="1.15131579" points="385.623053 182.115789 388.900431 183.365789 388.900431 302.977632 385.609891 301.878947"></polygon>
                <polygon id="Fill-173" fill="#051821" points="413.187911 269.176974 413.003641 295.400658 416.610073 332.413816 419.867708 334.249342"></polygon>
                <polygon id="Stroke-175" stroke="#0067AB" stroke-width="1.15131579" points="413.187911 269.176974 413.003641 295.400658 416.610073 332.413816 419.867708 334.249342"></polygon>
                <path d="M93.1762622,390.186842 L95.0781946,388.732895 C97.1512351,387.147368 97.3091811,385.515789 96.4733838,384.430263 C95.1703297,382.732895 93.8672757,382.864474 92.0377351,384.278947 L79.5994919,393.792105 C77.7633703,395.193421 77.3026946,396.417105 78.5991676,398.114474 C79.7706,399.653947 81.0473297,399.476316 82.6333703,398.259211 L85.6014378,395.989474 L88.8261676,400.206579 L86.0028838,402.371053 C82.5412351,405.015789 78.1582351,405.140789 74.9335054,400.923684 C71.5508297,396.509211 72.8078162,392.311842 76.2694649,389.653947 L88.9117216,379.976316 C92.3799514,377.325 96.7629514,377.2 100.145627,381.621053 C103.370357,385.831579 101.876451,390.213158 98.2042081,393.022368 L96.4009919,394.397368 L93.1762622,390.186842 Z" id="Fill-177" fill="#051821"></path>
                <path d="M93.1762622,390.186842 L95.0781946,388.732895 C97.1512351,387.147368 97.3091811,385.515789 96.4733838,384.430263 C95.1703297,382.732895 93.8672757,382.864474 92.0377351,384.278947 L79.5994919,393.792105 C77.7633703,395.193421 77.3026946,396.417105 78.5991676,398.114474 C79.7706,399.653947 81.0473297,399.476316 82.6333703,398.259211 L85.6014378,395.989474 L88.8261676,400.206579 L86.0028838,402.371053 C82.5412351,405.015789 78.1582351,405.140789 74.9335054,400.923684 C71.5508297,396.509211 72.8078162,392.311842 76.2694649,389.653947 L88.9117216,379.976316 C92.3799514,377.325 96.7629514,377.2 100.145627,381.621053 C103.370357,385.831579 101.876451,390.213158 98.2042081,393.022368 L96.4009919,394.397368 L93.1762622,390.186842 Z" id="Stroke-179" stroke="#C4CDD3" stroke-width="1.15131579"></path>
                <path d="M108.485173,425.182895 C106.978105,426.932895 106.767511,428.228947 108.386457,429.623684 C110.011984,431.018421 111.262389,430.623684 112.762876,428.867105 L122.989876,416.985526 C124.503524,415.228947 124.707538,413.939474 123.088592,412.544737 C121.463065,411.15 120.212659,411.544737 118.705592,413.301316 L108.485173,425.182895 Z M114.756943,409.735526 C117.613132,406.426316 121.877673,405.406579 126.102727,409.038158 C130.3212,412.669737 129.959241,417.038158 127.103051,420.347368 L116.711524,432.426316 C113.861916,435.735526 109.590795,436.755263 105.372322,433.130263 C101.153849,429.498684 101.515808,425.130263 104.371997,421.814474 L114.756943,409.735526 Z" id="Fill-181" fill="#051821"></path>
                <path d="M108.485173,425.182895 C106.978105,426.932895 106.767511,428.228947 108.386457,429.623684 C110.011984,431.018421 111.262389,430.623684 112.762876,428.867105 L122.989876,416.985526 C124.503524,415.228947 124.707538,413.939474 123.088592,412.544737 C121.463065,411.15 120.212659,411.544737 118.705592,413.301316 L108.485173,425.182895 Z M114.756943,409.735526 C117.613132,406.426316 121.877673,405.406579 126.102727,409.038158 C130.3212,412.669737 129.959241,417.038158 127.103051,420.347368 L116.711524,432.426316 C113.861916,435.735526 109.590795,436.755263 105.372322,433.130263 C101.153849,429.498684 101.515808,425.130263 104.371997,421.814474 L114.756943,409.735526 Z" id="Stroke-183" stroke="#C4CDD3" stroke-width="1.15131579"></path>
                <polygon id="Fill-185" fill="#051821" points="136.075697 452.886842 150.948941 425.794737 155.26613 428.163158 152.416522 446.761842 152.502076 446.807895 161.011414 431.314474 165.210143 433.617105 150.3369 460.702632 146.282954 458.485526 149.639305 438.307895 149.573495 438.268421 140.281008 455.189474"></polygon>
                <polygon id="Stroke-187" stroke="#C4CDD3" stroke-width="1.15131579" points="136.075697 452.886842 150.948941 425.794737 155.26613 428.163158 152.416522 446.761842 152.502076 446.807895 161.011414 431.314474 165.210143 433.617105 150.3369 460.702632 146.282954 458.485526 149.639305 438.307895 149.573495 438.268421 140.281008 455.189474"></polygon>
                <polygon id="Fill-189" fill="#051821" points="176.13408 471.511842 185.235715 441.985526 199.385039 446.347368 198.022755 450.761842 188.940864 447.965789 186.60458 455.571053 193.396255 457.669737 192.033972 462.084211 185.242296 459.985526 181.208093 473.077632"></polygon>
                <polygon id="Stroke-191" stroke="#C4CDD3" stroke-width="1.15131579" points="176.13408 471.511842 185.235715 441.985526 199.385039 446.347368 198.022755 450.761842 188.940864 447.965789 186.60458 455.571053 193.396255 457.669737 192.033972 462.084211 185.242296 459.985526 181.208093 473.077632"></polygon>
                <polygon id="Fill-193" fill="#051821" points="216.687359 481.129605 219.839697 450.386184 233.975859 451.840132 233.515184 456.432237 224.643886 455.524342 223.834414 463.445395 230.652414 464.142763 230.185157 468.741447 223.373738 468.050658 222.439224 477.076974 231.902819 478.0375 231.4224 482.636184"></polygon>
                <polygon id="Stroke-195" stroke="#C4CDD3" stroke-width="1.15131579" points="216.687359 481.129605 219.839697 450.386184 233.975859 451.840132 233.515184 456.432237 224.643886 455.524342 223.834414 463.445395 230.652414 464.142763 230.185157 468.741447 223.373738 468.050658 222.439224 477.076974 231.902819 478.0375 231.4224 482.636184"></polygon>
                <path d="M262.041538,465.248026 L263.917146,465.063816 C266.779916,464.780921 267.734173,463.609868 267.378795,459.945395 C267.023416,456.280921 265.845403,455.313816 262.995795,455.596711 L261.113605,455.780921 L262.041538,465.248026 Z M263.706551,482.201974 L258.415362,482.721711 L255.401227,451.951974 L262.818105,451.221711 C268.754241,450.642763 272.025038,452.859868 272.663403,459.425658 C273.143822,464.366447 271.432741,466.557237 269.715078,467.550658 L275.559078,481.044079 L270.182335,481.570395 L265.187295,469.195395 C264.509443,469.353289 263.403822,469.498026 262.469308,469.583553 L263.706551,482.201974 Z" id="Fill-197" fill="#051821"></path>
                <path d="M262.041538,465.248026 L263.917146,465.063816 C266.779916,464.780921 267.734173,463.609868 267.378795,459.945395 C267.023416,456.280921 265.845403,455.313816 262.995795,455.596711 L261.113605,455.780921 L262.041538,465.248026 Z M263.706551,482.201974 L258.415362,482.721711 L255.401227,451.951974 L262.818105,451.221711 C268.754241,450.642763 272.025038,452.859868 272.663403,459.425658 C273.143822,464.366447 271.432741,466.557237 269.715078,467.550658 L275.559078,481.044079 L270.182335,481.570395 L265.187295,469.195395 C264.509443,469.353289 263.403822,469.498026 262.469308,469.583553 L263.706551,482.201974 Z" id="Stroke-199" stroke="#C4CDD3" stroke-width="1.15131579"></path>
                <polygon id="Fill-201" fill="#051821" points="302.594818 473.998684 293.427372 444.472368 307.017304 440.261842 308.386169 444.676316 299.883412 447.314474 302.239439 454.919737 308.781034 452.893421 310.149899 457.314474 303.601723 459.334211 306.293385 468.011842 315.375277 465.196053 316.744142 469.610526"></polygon>
                <polygon id="Stroke-203" stroke="#C4CDD3" stroke-width="1.15131579" points="302.594818 473.998684 293.427372 444.472368 307.017304 440.261842 308.386169 444.676316 299.883412 447.314474 302.239439 454.919737 308.781034 452.893421 310.149899 457.314474 303.601723 459.334211 306.293385 468.011842 315.375277 465.196053 316.744142 469.610526"></polygon>
                <polygon id="Fill-205" fill="#051821" points="342.235959 458.141447 327.303486 431.082237 331.620676 428.700658 345.822649 441.0625 345.901622 441.023026 337.359378 425.536184 341.551527 423.220395 356.490581 450.292763 352.436635 452.523026 337.181689 438.878289 337.109297 438.917763 346.434689 455.825658"></polygon>
                <polygon id="Stroke-207" stroke="#C4CDD3" stroke-width="1.15131579" points="342.235959 458.141447 327.303486 431.082237 331.620676 428.700658 345.822649 441.0625 345.901622 441.023026 337.359378 425.536184 341.551527 423.220395 356.490581 450.292763 352.436635 452.523026 337.181689 438.878289 337.109297 438.917763 346.434689 455.825658"></polygon>
                <path d="M373.251936,411.691447 L371.685639,409.875658 C369.981139,407.901974 368.34245,407.842763 367.30922,408.7375 C365.690274,410.138816 365.894288,411.428289 367.401355,413.171711 L377.641518,425.033553 C379.148585,426.783553 380.398991,427.165132 382.011355,425.776974 C383.478936,424.520395 383.235436,423.257237 381.912639,421.7375 L379.48422,418.915132 L383.505261,415.448026 L385.821801,418.132237 C388.677991,421.434868 389.053112,425.809868 385.032072,429.276974 C380.82018,432.908553 376.56222,431.901974 373.706031,428.592763 L363.301342,416.546711 C360.451734,413.244079 360.070031,408.875658 364.288504,405.230921 C368.296382,401.770395 372.764936,403.013816 375.785653,406.507237 L377.266396,408.224342 L373.251936,411.691447 Z" id="Fill-209" fill="#051821"></path>
                <path d="M373.251936,411.691447 L371.685639,409.875658 C369.981139,407.901974 368.34245,407.842763 367.30922,408.7375 C365.690274,410.138816 365.894288,411.428289 367.401355,413.171711 L377.641518,425.033553 C379.148585,426.783553 380.398991,427.165132 382.011355,425.776974 C383.478936,424.520395 383.235436,423.257237 381.912639,421.7375 L379.48422,418.915132 L383.505261,415.448026 L385.821801,418.132237 C388.677991,421.434868 389.053112,425.809868 385.032072,429.276974 C380.82018,432.908553 376.56222,431.901974 373.706031,428.592763 L363.301342,416.546711 C360.451734,413.244079 360.070031,408.875658 364.288504,405.230921 C368.296382,401.770395 372.764936,403.013816 375.785653,406.507237 L377.266396,408.224342 L373.251936,411.691447 Z" id="Stroke-211" stroke="#C4CDD3" stroke-width="1.15131579"></path>
                <polygon id="Fill-213" fill="#051821" points="408.837158 403.898026 384.37528 385.003289 393.068888 373.766447 396.727969 376.595395 391.285415 383.634868 397.583509 388.503289 401.769077 383.082237 405.421577 385.917763 401.242591 391.325658 408.42255 396.878289 414.227064 389.351974 417.892726 392.1875"></polygon>
                <polygon id="Stroke-215" stroke="#C4CDD3" stroke-width="1.15131579" points="408.837158 403.898026 384.37528 385.003289 393.068888 373.766447 396.727969 376.595395 391.285415 383.634868 397.583509 388.503289 401.769077 383.082237 405.421577 385.917763 401.242591 391.325658 408.42255 396.878289 414.227064 389.351974 417.892726 392.1875"></polygon>
                <path d="M91.9745568,387.790789 L93.8764892,386.323684 C95.9495297,384.738158 96.1074757,383.119737 95.2716784,382.034211 C93.9686243,380.323684 92.6787324,380.461842 90.8360297,381.869737 L78.3977865,391.396053 C76.5616649,392.797368 76.0944081,394.014474 77.3974622,395.711842 C78.5688946,397.244737 79.8456243,397.073684 81.4382459,395.856579 L84.3997324,393.593421 L87.6244622,397.797368 L84.8011784,399.961842 C81.3395297,402.619737 76.9565297,402.731579 73.7318,398.527632 C70.3425432,394.113158 71.6061108,389.902632 75.0677595,387.257895 L87.7165973,377.573684 C91.1782459,374.928947 95.5612459,374.797368 98.9505027,379.211842 C102.168651,383.435526 100.674746,387.810526 97.0025027,390.626316 L95.1992865,392.001316 L91.9745568,387.790789 Z" id="Fill-217" fill="#FEFEFE"></path>
                <path d="M107.283468,422.779605 C105.7764,424.536184 105.559224,425.825658 107.184751,427.220395 C108.810278,428.615132 110.060684,428.220395 111.56117,426.470395 L121.794751,414.582237 C123.301819,412.825658 123.505832,411.536184 121.886886,410.141447 C120.261359,408.746711 119.010954,409.141447 117.503886,410.891447 L107.283468,422.779605 Z M113.561819,407.332237 C116.411427,404.016447 120.682549,403.003289 124.901022,406.634868 C129.119495,410.266447 128.750954,414.634868 125.901346,417.950658 L115.5164,430.023026 C112.660211,433.332237 108.39567,434.358553 104.170616,430.726974 C99.9521432,427.095395 100.314103,422.726974 103.170292,419.404605 L113.561819,407.332237 Z" id="Fill-219" fill="#FEFEFE"></path>
                <polygon id="Fill-221" fill="#FEFEFE" points="134.873992 450.483553 149.747235 423.391447 154.064424 425.759868 151.221397 444.365132 151.30037 444.411184 159.809708 428.911184 164.015019 431.213816 149.135195 458.305921 145.081249 456.088816 148.444181 435.911184 148.371789 435.858553 139.079303 452.792763"></polygon>
                <polygon id="Fill-223" fill="#FEFEFE" points="174.932374 469.108553 184.034009 439.582237 198.189915 443.944079 196.827631 448.358553 187.739158 445.5625 185.402874 453.167763 192.19455 455.259868 190.832266 459.680921 184.040591 457.588816 180.006388 470.674342"></polygon>
                <polygon id="Fill-225" fill="#FEFEFE" points="215.492235 478.733553 218.644573 447.990132 232.780735 449.4375 232.313478 454.036184 223.448762 453.121711 222.639289 461.042763 229.450708 461.746711 228.983451 466.345395 222.172032 465.648026 221.237519 474.674342 230.694532 475.641447 230.220695 480.233553"></polygon>
                <path d="M260.839832,462.838816 L262.715441,462.661184 C265.578211,462.384868 266.532468,461.207237 266.177089,457.542763 C265.81513,453.884868 264.643697,452.911184 261.787508,453.194079 L259.9119,453.384868 L260.839832,462.838816 Z M262.504846,479.799342 L257.220238,480.319079 L254.199522,449.549342 L261.6164,448.819079 C267.545954,448.240132 270.823332,450.463816 271.461697,457.023026 C271.942116,461.963816 270.224454,464.154605 268.513373,465.148026 L274.357373,478.641447 L268.98063,479.167763 L263.979008,466.799342 C263.307738,466.944079 262.208697,467.095395 261.267603,467.1875 L262.504846,479.799342 Z" id="Fill-227" fill="#FEFEFE"></path>
                <polygon id="Fill-229" fill="#FEFEFE" points="300.788969 471.897368 291.628104 442.371053 305.218036 438.153947 306.586901 442.581579 298.077564 445.213158 300.433591 452.825 306.975185 450.792105 308.350631 455.213158 301.802455 457.232895 304.500699 465.910526 313.576009 463.088158 314.938293 467.515789"></polygon>
                <polygon id="Fill-231" fill="#FEFEFE" points="339.831891 456.940789 324.905999 429.875 329.216607 427.5 343.41858 439.861842 343.490972 439.815789 334.955309 424.335526 339.147458 422.019737 354.079931 449.092105 350.032566 451.322368 334.77762 437.677632 334.711809 437.723684 344.03062 454.625"></polygon>
                <path d="M370.545796,410.489474 L368.979499,408.680263 C367.274999,406.7 365.642891,406.640789 364.60308,407.535526 C362.984134,408.936842 363.188147,410.219737 364.701796,411.976316 L374.935377,423.825 C376.442445,425.575 377.69285,425.976316 379.311796,424.581579 C380.772796,423.318421 380.529296,422.055263 379.219661,420.528947 L376.784661,417.719737 L380.79912,414.246053 L383.122242,416.936842 C385.978431,420.239474 386.353553,424.607895 382.332512,428.075 C378.114039,431.713158 373.85608,430.693421 370.999891,427.390789 L360.595201,415.344737 C357.745593,412.035526 357.370472,407.667105 361.582364,404.042105 C365.603404,400.568421 370.065377,401.811842 373.086093,405.305263 L374.566836,407.028947 L370.545796,410.489474 Z" id="Fill-233" fill="#FEFEFE"></path>
                <polygon id="Fill-235" fill="#FEFEFE" points="406.131676 403.294079 381.676378 384.4125 390.369986 373.169079 394.022486 375.991447 388.579932 383.0375 394.878027 387.899342 399.070176 382.484868 402.729257 385.313816 398.537108 390.728289 405.723649 396.274342 411.528162 388.754605 415.187243 391.583553"></polygon>
            </g>
        </g>
    </g>
</svg>